<svg width="22" height="22" viewBox="0 0 22 22" fill="none" xmlns="http://www.w3.org/2000/svg">
<g clip-path="url(#clip0_1441_1253)">
<path fill-rule="evenodd" clip-rule="evenodd" d="M7.60188 11.6481C7.43004 11.4762 7.3335 11.2431 7.3335 11C7.3335 10.7569 7.43004 10.5238 7.60188 10.3519L12.7875 5.16632C12.872 5.07877 12.9732 5.00894 13.085 4.9609C13.1968 4.91285 13.3171 4.88757 13.4388 4.88651C13.5606 4.88545 13.6813 4.90865 13.7939 4.95474C13.9066 5.00083 14.0089 5.06889 14.095 5.15496C14.1811 5.24103 14.2491 5.34338 14.2952 5.45603C14.3413 5.56869 14.3645 5.68939 14.3634 5.81111C14.3624 5.93282 14.3371 6.05311 14.2891 6.16494C14.241 6.27678 14.1712 6.37793 14.0836 6.46249L9.54613 11L14.0836 15.5375C14.2506 15.7104 14.343 15.9419 14.3409 16.1823C14.3388 16.4226 14.2424 16.6525 14.0725 16.8225C13.9025 16.9924 13.6726 17.0889 13.4323 17.0909C13.1919 17.093 12.9604 17.0006 12.7875 16.8337L7.60188 11.6481Z" fill="black"/>
</g>
<defs>
<clipPath id="clip0_1441_1253">
<rect width="22" height="22" fill="white"/>
</clipPath>
</defs>
</svg>
