<svg width="14" height="14" viewBox="0 0 14 14" fill="none" xmlns="http://www.w3.org/2000/svg">
<path d="M8.36003 7V11.5967C8.38192 11.7717 8.3272 11.9583 8.20135 12.0808C8.15072 12.1349 8.09059 12.1778 8.0244 12.2071C7.9582 12.2364 7.88724 12.2514 7.81557 12.2514C7.74391 12.2514 7.67294 12.2364 7.60675 12.2071C7.54055 12.1778 7.48042 12.1349 7.4298 12.0808L6.32993 10.9083C6.27028 10.8461 6.22493 10.77 6.1974 10.6861C6.16988 10.6021 6.16092 10.5124 6.17124 10.4242V7H6.15483L3.00297 2.695C2.91411 2.57339 2.87401 2.41923 2.89144 2.26621C2.90887 2.11318 2.98241 1.97374 3.09599 1.87833C3.19996 1.79667 3.31487 1.75 3.43525 1.75H11.096C11.2164 1.75 11.3313 1.79667 11.4353 1.87833C11.5489 1.97374 11.6224 2.11318 11.6398 2.26621C11.6573 2.41923 11.6172 2.57339 11.5283 2.695L8.37645 7H8.36003Z" fill="#0038FF"/>
</svg>
