<svg width="21" height="21" viewBox="0 0 21 21" fill="none" xmlns="http://www.w3.org/2000/svg">
<path d="M19.0312 18.1033L14.0752 13.1473C15.2662 11.7176 15.8601 9.8837 15.7334 8.02722C15.6066 6.17073 14.7691 4.43457 13.3949 3.1799C12.0207 1.92523 10.2157 1.24866 8.35535 1.29093C6.49502 1.3332 4.72261 2.09106 3.40682 3.40685C2.09103 4.72264 1.33317 6.49505 1.2909 8.35538C1.24863 10.2157 1.9252 12.0207 3.17987 13.3949C4.43454 14.7691 6.1707 15.6067 8.02719 15.7334C9.88367 15.8601 11.7175 15.2662 13.1473 14.0753L18.1033 19.0313L19.0312 18.1033ZM2.625 8.53128C2.625 7.36313 2.9714 6.22122 3.62038 5.24994C4.26937 4.27867 5.1918 3.52165 6.27103 3.07462C7.35025 2.62759 8.5378 2.51062 9.6835 2.73852C10.8292 2.96641 11.8816 3.52893 12.7076 4.35493C13.5336 5.18093 14.0961 6.23333 14.324 7.37903C14.5519 8.52473 14.4349 9.71228 13.9879 10.7915C13.5409 11.8707 12.7839 12.7932 11.8126 13.4421C10.8413 14.0911 9.6994 14.4375 8.53125 14.4375C6.96535 14.4358 5.46408 13.813 4.35682 12.7057C3.24956 11.5985 2.62674 10.0972 2.625 8.53128Z" fill="#0038FF"/>
</svg>
