<svg width="24" height="18" viewBox="0 0 24 18" fill="none" xmlns="http://www.w3.org/2000/svg">
<path d="M0.971316 4.60035H23.029V3.66606C23.029 1.59735 21.9747 0.55249 19.8752 0.55249H4.12517C2.02603 0.55249 0.970888 1.59735 0.970888 3.66649L0.971316 4.60035ZM0.971316 14.3439C0.971316 16.4131 2.0256 17.4476 4.12517 17.4476H19.8752C21.9743 17.4476 23.0295 16.4131 23.0295 14.3439V6.88078H0.970459L0.971316 14.3439ZM4.32617 11.8929V10.0346C4.32617 9.47235 4.71789 9.07035 5.3106 9.07035H7.77146C8.36417 9.07035 8.75589 9.47235 8.75589 10.0346V11.8929C8.75589 12.4655 8.36417 12.8572 7.77146 12.8572H5.31017C4.71746 12.8572 4.32617 12.4655 4.32617 11.8929Z" fill="black"/>
</svg>
