<svg width="20" height="17" viewBox="0 0 20 17" fill="none" xmlns="http://www.w3.org/2000/svg">
<path fill-rule="evenodd" clip-rule="evenodd" d="M11.4583 0.5H2.5C1.83696 0.5 1.20107 0.680612 0.732233 1.0021C0.263392 1.32359 0 1.75963 0 2.21429V14.7857C0 15.2404 0.263392 15.6764 0.732233 15.9979C1.20107 16.3194 1.83696 16.5 2.5 16.5H17.5C18.163 16.5 18.7989 16.3194 19.2678 15.9979C19.7366 15.6764 20 15.2404 20 14.7857V6.35714H12.5C12.3632 6.35714 12.2278 6.33867 12.1014 6.30277C11.975 6.26687 11.8602 6.21426 11.7634 6.14793C11.6667 6.08161 11.59 6.00286 11.5376 5.9162C11.4853 5.82954 11.4583 5.73666 11.4583 5.64286V0.5ZM19.4737 5.5L13.1579 0.5V5.5H19.4737Z" fill="black" fill-opacity="0.56"/>
</svg>
