<svg width="20" height="13" viewBox="0 0 20 13" fill="none" xmlns="http://www.w3.org/2000/svg">
<path d="M0.374834 11.3259V1.6734C0.376106 1.42873 0.442966 1.18888 0.568451 0.97884C0.693935 0.768798 0.873451 0.59625 1.08829 0.479175C1.30314 0.3621 1.54544 0.304781 1.78997 0.313191C2.0345 0.321602 2.27229 0.395433 2.47858 0.526994L9.31234 4.87887V1.6734C9.31361 1.42873 9.38047 1.18888 9.50595 0.97884C9.63144 0.768798 9.81095 0.59625 10.0258 0.479175C10.2406 0.3621 10.4829 0.304781 10.7275 0.313191C10.972 0.321602 11.2098 0.395433 11.4161 0.526994L18.9949 5.35324C19.188 5.4758 19.347 5.64513 19.4572 5.84555C19.5674 6.04596 19.6251 6.27095 19.6251 6.49965C19.6251 6.72835 19.5674 6.95334 19.4572 7.15376C19.347 7.35417 19.188 7.5235 18.9949 7.64606L11.4161 12.4723C11.2099 12.6042 10.972 12.6782 10.7274 12.6868C10.4827 12.6953 10.2403 12.6381 10.0254 12.5209C9.81041 12.4038 9.63086 12.2311 9.50544 12.0209C9.38002 11.8107 9.31333 11.5707 9.31234 11.3259V8.12043L2.47858 12.4723C2.27235 12.6042 2.0345 12.6782 1.78987 12.6868C1.54523 12.6953 1.30279 12.6381 1.08785 12.5209C0.872913 12.4038 0.693357 12.2311 0.567938 12.0209C0.442516 11.8107 0.375828 11.5707 0.374834 11.3259Z" fill="black"/>
</svg>
