<svg width="24" height="15" viewBox="0 0 24 15" fill="none" xmlns="http://www.w3.org/2000/svg">
<path d="M23.3751 1.79668V13.2042C23.3736 13.4933 23.2946 13.7768 23.1463 14.025C22.998 14.2733 22.7858 14.4772 22.5319 14.6155C22.278 14.7539 21.9916 14.8216 21.7027 14.8117C21.4137 14.8018 21.1326 14.7145 20.8888 14.559L12.8126 9.4159V13.2042C12.8111 13.4933 12.7321 13.7768 12.5838 14.025C12.4355 14.2733 12.2233 14.4772 11.9694 14.6155C11.7155 14.7539 11.4291 14.8216 11.1402 14.8117C10.8512 14.8018 10.5701 14.7145 10.3263 14.559L1.36955 8.85528C1.14135 8.71044 0.953431 8.51032 0.823228 8.27347C0.693024 8.03662 0.624756 7.77072 0.624756 7.50043C0.624756 7.23015 0.693024 6.96425 0.823228 6.7274C0.953431 6.49055 1.14135 6.29043 1.36955 6.14559L10.3263 0.441842C10.5701 0.286013 10.8512 0.198474 11.1403 0.188365C11.4294 0.178256 11.7159 0.245947 11.9699 0.384372C12.224 0.522796 12.4362 0.726876 12.5844 0.975305C12.7326 1.22373 12.8114 1.5074 12.8126 1.79668V5.58497L20.8888 0.441842C21.1326 0.286013 21.4137 0.198474 21.7028 0.188365C21.9919 0.178256 22.2784 0.245947 22.5324 0.384372C22.7865 0.522796 22.9987 0.726876 23.1469 0.975305C23.2951 1.22373 23.3739 1.5074 23.3751 1.79668Z" fill="#7D7D7D"/>
</svg>
