<svg width="34" height="34" viewBox="0 0 34 34" fill="none" xmlns="http://www.w3.org/2000/svg">
<path d="M34 4C32.7486 4.7 31.3996 5.16 30.0019 5.38C31.4321 4.32 32.5373 2.64 33.0574 0.62C31.7084 1.62 30.2132 2.32 28.6367 2.72C27.3528 1 25.5488 0 23.501 0C19.6816 0 16.5612 3.84 16.5612 8.58C16.5612 9.26 16.6262 9.92 16.74 10.54C10.9541 10.18 5.8021 6.76 2.37285 1.58C1.77151 2.84 1.43021 4.32 1.43021 5.88C1.43021 8.86 2.64914 11.5 4.53442 13C3.3805 13 2.30784 12.6 1.3652 12V12.06C1.3652 16.22 3.77056 19.7 6.95602 20.48C5.93349 20.8259 4.85953 20.8738 3.81931 20.62C4.26074 22.325 5.12525 23.8168 6.29133 24.8859C7.4574 25.9549 8.86641 26.5474 10.3203 26.58C7.85587 28.981 4.80097 30.2788 1.65774 30.26C1.10516 30.26 0.552581 30.22 0 30.14C3.08795 32.58 6.76099 34 10.6941 34C23.501 34 30.5382 20.92 30.5382 9.58C30.5382 9.2 30.5382 8.84 30.522 8.46C31.8872 7.26 33.0574 5.74 34 4Z" fill="black"/>
</svg>
