<svg width="48" height="48" viewBox="0 0 48 48" fill="none" xmlns="http://www.w3.org/2000/svg">
<rect width="48" height="48" rx="5" fill="#0038FF"/>
<path d="M31.2 31.2C29.868 31.2 28.8 32.268 28.8 33.6C28.8 34.2365 29.0529 34.847 29.5029 35.2971C29.953 35.7471 30.5635 36 31.2 36C31.8365 36 32.447 35.7471 32.8971 35.2971C33.3471 34.847 33.6 34.2365 33.6 33.6C33.6 32.9635 33.3471 32.353 32.8971 31.9029C32.447 31.4529 31.8365 31.2 31.2 31.2ZM12 12V14.4H14.4L18.72 23.508L17.088 26.448C16.908 26.784 16.8 27.18 16.8 27.6C16.8 28.2365 17.0529 28.847 17.5029 29.2971C17.953 29.7471 18.5635 30 19.2 30H33.6V27.6H19.704C19.6244 27.6 19.5481 27.5684 19.4919 27.5121C19.4356 27.4559 19.404 27.3796 19.404 27.3C19.404 27.24 19.416 27.192 19.44 27.156L20.52 25.2H29.46C30.36 25.2 31.152 24.696 31.56 23.964L35.856 16.2C35.94 16.008 36 15.804 36 15.6C36 15.2817 35.8736 14.9765 35.6485 14.7515C35.4235 14.5264 35.1183 14.4 34.8 14.4H17.052L15.924 12M19.2 31.2C17.868 31.2 16.8 32.268 16.8 33.6C16.8 34.2365 17.0529 34.847 17.5029 35.2971C17.953 35.7471 18.5635 36 19.2 36C19.8365 36 20.447 35.7471 20.8971 35.2971C21.3471 34.847 21.6 34.2365 21.6 33.6C21.6 32.9635 21.3471 32.353 20.8971 31.9029C20.447 31.4529 19.8365 31.2 19.2 31.2Z" fill="white"/>
</svg>
