<svg width="22" height="22" viewBox="0 0 22 22" fill="none" xmlns="http://www.w3.org/2000/svg">
<path d="M11 11.6875C11 11.8698 10.9276 12.0447 10.7986 12.1736C10.6697 12.3026 10.4948 12.375 10.3125 12.375H6.1875C6.00516 12.375 5.8303 12.3026 5.70136 12.1736C5.57243 12.0447 5.5 11.8698 5.5 11.6875C5.5 11.5052 5.57243 11.3303 5.70136 11.2014C5.8303 11.0724 6.00516 11 6.1875 11H10.3125C10.4948 11 10.6697 11.0724 10.7986 11.2014C10.9276 11.3303 11 11.5052 11 11.6875ZM10.3125 8.25H6.1875C6.00516 8.25 5.8303 8.32243 5.70136 8.45136C5.57243 8.5803 5.5 8.75516 5.5 8.9375C5.5 9.11984 5.57243 9.2947 5.70136 9.42364C5.8303 9.55257 6.00516 9.625 6.1875 9.625H10.3125C10.4948 9.625 10.6697 9.55257 10.7986 9.42364C10.9276 9.2947 11 9.11984 11 8.9375C11 8.75516 10.9276 8.5803 10.7986 8.45136C10.6697 8.32243 10.4948 8.25 10.3125 8.25ZM19.9375 13.8763V19.25C19.9386 19.3712 19.9076 19.4905 19.8477 19.5959C19.7878 19.7013 19.7011 19.789 19.5964 19.85C19.4917 19.9111 19.3728 19.9434 19.2516 19.9437C19.1303 19.944 19.0112 19.9122 18.9062 19.8516L16.8438 18.6708L14.7812 19.8516C14.6763 19.9122 14.5572 19.944 14.436 19.9437C14.3147 19.9434 14.1958 19.9111 14.0911 19.85C13.9864 19.789 13.8997 19.7013 13.8398 19.5959C13.7799 19.4905 13.7489 19.3712 13.75 19.25V17.1875H3.4375C3.07283 17.1875 2.72309 17.0426 2.46523 16.7848C2.20737 16.5269 2.0625 16.1772 2.0625 15.8125V4.8125C2.0625 4.44783 2.20737 4.09809 2.46523 3.84023C2.72309 3.58237 3.07283 3.4375 3.4375 3.4375H18.5625C18.9272 3.4375 19.2769 3.58237 19.5348 3.84023C19.7926 4.09809 19.9375 4.44783 19.9375 4.8125V7.43617C20.3721 7.85235 20.718 8.3522 20.9542 8.90561C21.1905 9.45901 21.3123 10.0545 21.3123 10.6562C21.3123 11.258 21.1905 11.8535 20.9542 12.4069C20.718 12.9603 20.3721 13.4601 19.9375 13.8763ZM13.75 15.8125V13.8763C13.0008 13.1538 12.5273 12.1924 12.4113 11.1581C12.2952 10.1237 12.5438 9.08128 13.1142 8.21067C13.6847 7.34006 14.5411 6.69587 15.5358 6.38927C16.5304 6.08266 17.6009 6.13288 18.5625 6.53125V4.8125H3.4375V15.8125H13.75ZM18.5625 14.7812C18.018 15.0087 17.4338 15.1259 16.8438 15.1259C16.2537 15.1259 15.6695 15.0087 15.125 14.7812V18.0658L16.5 17.2786C16.6039 17.2192 16.7215 17.188 16.8412 17.188C16.9608 17.188 17.0784 17.2192 17.1823 17.2786L18.5573 18.0658L18.5625 14.7812ZM19.9375 10.6562C19.9375 10.0444 19.7561 9.44622 19.4161 8.93745C19.0762 8.42869 18.593 8.03216 18.0277 7.798C17.4624 7.56384 16.8403 7.50257 16.2402 7.62195C15.6401 7.74132 15.0888 8.03597 14.6561 8.46864C14.2235 8.90131 13.9288 9.45256 13.8094 10.0527C13.6901 10.6528 13.7513 11.2749 13.9855 11.8402C14.2197 12.4055 14.6162 12.8887 15.125 13.2286C15.6337 13.5686 16.2319 13.75 16.8438 13.75C17.25 13.75 17.6523 13.67 18.0277 13.5145C18.403 13.359 18.7441 13.1311 19.0314 12.8439C19.3186 12.5566 19.5465 12.2155 19.702 11.8402C19.8575 11.4648 19.9375 11.0625 19.9375 10.6562Z" fill="black"/>
</svg>
