<svg width="3" height="12" viewBox="0 0 3 12" fill="none" xmlns="http://www.w3.org/2000/svg">
<path d="M2.14404 0.835938L2.04883 8.48975H0.825684L0.723145 0.835938H2.14404ZM0.679199 10.8188C0.679199 10.5991 0.745117 10.4136 0.876953 10.2622C1.01367 10.1108 1.21387 10.0352 1.47754 10.0352C1.73633 10.0352 1.93408 10.1108 2.0708 10.2622C2.2124 10.4136 2.2832 10.5991 2.2832 10.8188C2.2832 11.0288 2.2124 11.2095 2.0708 11.3608C1.93408 11.5122 1.73633 11.5879 1.47754 11.5879C1.21387 11.5879 1.01367 11.5122 0.876953 11.3608C0.745117 11.2095 0.679199 11.0288 0.679199 10.8188Z" fill="black"/>
</svg>
