<svg width="11" height="11" viewBox="0 0 11 11" fill="none" xmlns="http://www.w3.org/2000/svg">
<path d="M7.68 6.5C7.72 6.17 7.75 5.84 7.75 5.5C7.75 5.16 7.72 4.83 7.68 4.5H9.37C9.45 4.82 9.5 5.155 9.5 5.5C9.5 5.845 9.45 6.18 9.37 6.5M6.795 9.28C7.095 8.725 7.325 8.125 7.485 7.5H8.96C8.47558 8.33414 7.70706 8.966 6.795 9.28ZM6.67 6.5H4.33C4.28 6.17 4.25 5.84 4.25 5.5C4.25 5.16 4.28 4.825 4.33 4.5H6.67C6.715 4.825 6.75 5.16 6.75 5.5C6.75 5.84 6.715 6.17 6.67 6.5ZM5.5 9.48C5.085 8.88 4.75 8.215 4.545 7.5H6.455C6.25 8.215 5.915 8.88 5.5 9.48ZM3.5 3.5H2.04C2.51932 2.66352 3.28733 2.03062 4.2 1.72C3.9 2.275 3.675 2.875 3.5 3.5ZM2.04 7.5H3.5C3.675 8.125 3.9 8.725 4.2 9.28C3.28913 8.96615 2.52214 8.3341 2.04 7.5ZM1.63 6.5C1.55 6.18 1.5 5.845 1.5 5.5C1.5 5.155 1.55 4.82 1.63 4.5H3.32C3.28 4.83 3.25 5.16 3.25 5.5C3.25 5.84 3.28 6.17 3.32 6.5M5.5 1.515C5.915 2.115 6.25 2.785 6.455 3.5H4.545C4.75 2.785 5.085 2.115 5.5 1.515ZM8.96 3.5H7.485C7.32827 2.88081 7.09656 2.28305 6.795 1.72C7.715 2.035 8.48 2.67 8.96 3.5ZM5.5 0.5C2.735 0.5 0.5 2.75 0.5 5.5C0.5 6.82608 1.02678 8.09785 1.96447 9.03553C2.42876 9.49983 2.97995 9.86812 3.58658 10.1194C4.19321 10.3707 4.84339 10.5 5.5 10.5C6.82608 10.5 8.09785 9.97322 9.03553 9.03553C9.97322 8.09785 10.5 6.82608 10.5 5.5C10.5 4.84339 10.3707 4.19321 10.1194 3.58658C9.86812 2.97995 9.49983 2.42876 9.03553 1.96447C8.57124 1.50017 8.02005 1.13188 7.41342 0.880602C6.80679 0.629329 6.15661 0.5 5.5 0.5Z" fill="black"/>
</svg>
