<svg width="22" height="22" viewBox="0 0 22 22" fill="none" xmlns="http://www.w3.org/2000/svg">
<path d="M21.3125 11C21.3126 11.9519 21.0304 12.8824 20.5016 13.6738C19.9728 14.4653 19.2211 15.0822 18.3417 15.4465C17.4623 15.8108 16.4946 15.9061 15.561 15.7203C14.6275 15.5346 13.7699 15.0762 13.0969 14.4031L13.0685 14.373L7.91657 8.55506C7.43424 8.07836 6.82167 7.75498 6.15597 7.62561C5.49028 7.49624 4.80118 7.56667 4.17542 7.82803C3.54965 8.08938 3.01517 8.53 2.63924 9.09441C2.26331 9.65883 2.06272 10.3218 2.06272 11C2.06272 11.6781 2.26331 12.3411 2.63924 12.9056C3.01517 13.47 3.54965 13.9106 4.17542 14.1719C4.80118 14.4333 5.49028 14.5037 6.15597 14.3744C6.82167 14.245 7.43424 13.9216 7.91657 13.4449L8.64876 12.6182C8.76967 12.4814 8.93995 12.3983 9.12215 12.3871C9.30435 12.3759 9.48353 12.4375 9.62028 12.5585C9.75704 12.6794 9.84015 12.8497 9.85135 13.0319C9.86256 13.214 9.80092 13.3932 9.68001 13.53L8.93321 14.373L8.90485 14.4031C8.23179 15.0761 7.37429 15.5344 6.44077 15.72C5.50725 15.9057 4.53964 15.8104 3.6603 15.4461C2.78096 15.0818 2.02938 14.465 1.50059 13.6736C0.971811 12.8822 0.689575 11.9518 0.689575 11C0.689575 10.0482 0.971811 9.11775 1.50059 8.32635C2.02938 7.53495 2.78096 6.91812 3.6603 6.55386C4.53964 6.1896 5.50725 6.09427 6.44077 6.27992C7.37429 6.46557 8.23179 6.92387 8.90485 7.59686L8.93321 7.62694L14.0852 13.4449C14.5675 13.9216 15.1801 14.245 15.8458 14.3744C16.5115 14.5037 17.2006 14.4333 17.8263 14.1719C18.4521 13.9106 18.9866 13.47 19.3625 12.9056C19.7384 12.3411 19.939 11.6781 19.939 11C19.939 10.3218 19.7384 9.65883 19.3625 9.09441C18.9866 8.53 18.4521 8.08938 17.8263 7.82803C17.2006 7.56667 16.5115 7.49624 15.8458 7.62561C15.1801 7.75498 14.5675 8.07836 14.0852 8.55506L13.353 9.38178C13.2321 9.51853 13.0618 9.60165 12.8796 9.61285C12.6974 9.62405 12.5182 9.56242 12.3815 9.44151C12.2447 9.32059 12.1616 9.15031 12.1504 8.96811C12.1392 8.78592 12.2008 8.60674 12.3217 8.46998L13.0685 7.62694L13.0969 7.59686C13.7699 6.92375 14.6275 6.46535 15.561 6.27963C16.4946 6.09391 17.4623 6.18921 18.3417 6.55349C19.2211 6.91776 19.9728 7.53464 20.5016 8.32612C21.0304 9.1176 21.3126 10.0481 21.3125 11Z" fill="black"/>
</svg>
