<svg width="19" height="22" viewBox="0 0 19 22" fill="none" xmlns="http://www.w3.org/2000/svg">
<path d="M16.8889 0H2.11111C1.55121 0 1.01424 0.165561 0.618331 0.460261C0.22242 0.754961 0 1.15466 0 1.57143V20.4286C0 20.8453 0.22242 21.245 0.618331 21.5397C1.01424 21.8344 1.55121 22 2.11111 22H16.8889C17.4488 22 17.9858 21.8344 18.3817 21.5397C18.7776 21.245 19 20.8453 19 20.4286V1.57143C19 1.15466 18.7776 0.754961 18.3817 0.460261C17.9858 0.165561 17.4488 0 16.8889 0ZM10.5556 20.4286H8.44444V18.8571H10.5556V20.4286ZM2.11111 17.2857V1.57143H16.8889V17.2857H2.11111Z" fill="black"/>
</svg>
